<?xml version="1.0" encoding="utf-8"?>
<!-- Generator: Adobe Illustrator 19.2.0, SVG Export Plug-In . SVG Version: 6.00 Build 0)  -->
<svg version="1.1" id="Layer_1" xmlns="http://www.w3.org/2000/svg" xmlns:xlink="http://www.w3.org/1999/xlink" x="0px" y="0px"
	 viewBox="0 0 100 100" style="enable-background:new 0 0 100 100;" xml:space="preserve">
<title>60 all</title>
<path d="M21.7,59.2h36.6c0.6,0,1-0.4,1-1V21.6c0-0.6-0.4-1-1-1H21.7c-0.6,0-1,0.4-1,1v36.6C20.7,58.8,21.2,59.2,21.7,59.2z
	 M22.7,22.7h34.6v34.6H22.7V22.7z"/>
<path d="M41.7,79.2h36.6c0.6,0,1-0.4,1-1V41.6c0-0.6-0.4-1-1-1h-11v2h10v34.6H42.7v-10h-2v11C40.7,78.7,41.1,79.2,41.7,79.2z"/>
</svg>
